<svg id="Layer_1" data-name="Layer 1" xmlns="http://www.w3.org/2000/svg" viewBox="0 0 54.79 39.5"><defs><style>.cls-1{fill:#ed1c24;}.cls-1,.cls-2{fill-rule:evenodd;}.cls-2{fill:#00a651;}</style></defs><polygon class="cls-1" points="34.06 0 40.72 0 40.72 6.66 34.06 6.66 34.06 0 34.06 0"/><polygon class="cls-2" points="20.75 13.31 27.41 13.31 27.41 6.66 34.06 6.66 34.06 13.31 40.62 13.31 40.62 19.97 34.06 19.97 34.06 26.62 27.41 26.62 27.41 19.97 20.75 19.97 20.75 26.62 14.09 26.62 14.09 6.66 20.75 6.66 20.75 13.31 20.75 13.31"/><path class="cls-1" d="M620,876.28h1.44v2.56h2.69v-2.56h1.44v6.5h-1.44V880h-2.69v2.82H620v-6.5Zm7.46,4.55h3.44c.2-4-5.16-4-4.82,0,.07,2.64,4.08,3.09,4.71.52h-1.47a1,1,0,0,1-1.86-.5Zm0-.9h1.94a1,1,0,1,0-1.94,0Zm4.07-1.91v4.85h1.35v-2.44c0-1.07.56-1.37,1.63-1.33v-1.19c-.77,0-1.42.15-1.68.58V878l-1.3,0Zm5.49-.15a2.57,2.57,0,1,1-2.42,2.57,2.32,2.32,0,0,1,2.42-2.57Zm0,1.07c.81,0,1.05.84,1.05,1.5s-.24,1.49-1.05,1.49-1-.83-1-1.49.23-1.5,1-1.5Z" transform="translate(-620 -845)"/><polygon class="cls-2" points="20.42 31.28 21.86 31.28 24.92 31.28 24.92 32.35 21.86 32.35 21.86 34.22 24.62 34.22 24.62 35.33 21.86 35.33 21.86 37.79 20.42 37.79 20.42 35.33 20.42 34.22 20.42 32.35 20.42 31.28 20.42 31.28"/><polygon class="cls-2" points="25.57 32.99 26.88 32.99 26.88 37.78 25.57 37.78 25.57 32.99 25.57 32.99"/><polygon class="cls-2" points="25.57 31.28 26.88 31.28 26.88 32.56 25.57 32.56 25.57 31.28 25.57 31.28"/><path class="cls-2" d="M647.92,882.85h1.33v-3c0-1,1.63-1.39,1.63,0v3h1.38v-3.12a1.7,1.7,0,0,0-2.64-1.56,1.24,1.24,0,0,0-.42.43V878h-1.28v4.84Z" transform="translate(-620 -845)"/><path class="cls-2" d="M661.46,877.87a2.57,2.57,0,1,1-2.41,2.57,2.33,2.33,0,0,1,2.41-2.57Zm0,1.07c.82,0,1.06.84,1.06,1.5s-.24,1.49-1.06,1.49-1.05-.83-1.05-1.49.24-1.5,1.05-1.5Z" transform="translate(-620 -845)"/><path class="cls-2" d="M657.35,880.54h1.45c-.36,2-1.61,2.66-3.49,2.44a2.89,2.89,0,0,1-2.27-2.14,4,4,0,0,1,.54-3.61c1.48-1.77,4.82-1.7,5.27,1.18h-1.48c-.84-2.44-3.52-.68-3,1.79a1.86,1.86,0,0,0,1.5,1.64,1.16,1.16,0,0,0,1-.36,1.64,1.64,0,0,0,.48-.94Z" transform="translate(-620 -845)"/><path class="cls-2" d="M664.5,878v4.85h1.36v-2.44c0-1.07.56-1.37,1.62-1.33v-1.19c-.76,0-1.42.15-1.68.58V878l-1.3,0Z" transform="translate(-620 -845)"/><path class="cls-2" d="M667.93,878v6.47h1.34V882a1.84,1.84,0,0,0,1.38.85c2.64.16,2.62-5.32-.24-4.93a1.65,1.65,0,0,0-1.12.65V878Zm3.31,2.38c-.07-1.73-2-1.79-1.91.07s2,1.78,1.91-.07Z" transform="translate(-620 -845)"/><polygon class="cls-1" points="53.18 36.21 54.79 36.21 54.79 37.9 53.18 37.9 53.18 36.21 53.18 36.21"/></svg>