<svg id="Layer_1" data-name="Layer 1" xmlns="http://www.w3.org/2000/svg" viewBox="0 0 971 299.64"><defs><style>.cls-1{fill:#00367b;}.cls-2{fill:#e6691f;}.cls-2,.cls-3{fill-rule:evenodd;}.cls-3{fill:#fff;}</style></defs><rect class="cls-1" x="317.87" y="39.54" width="653.13" height="220.59"/><polyline class="cls-2" points="98.8 114.1 110.84 129.86 121.24 114.1 98.8 114.1"/><polyline class="cls-2" points="140.62 84.76 165.38 84.76 140.38 42.36 115.36 84.76 140.62 84.76"/><polyline class="cls-2" points="109.08 168.57 97.92 188.01 121.92 188.01 110.75 168.57 109.08 168.57"/><polyline class="cls-2" points="55.2 114.1 53.74 116.03 75.34 152.64 98.08 114.1 55.2 114.1"/><polyline class="cls-2" points="115.36 84.76 77.08 84.76 76.75 85.21 98.39 113.56 115.36 84.76"/><polyline class="cls-2" points="171.66 168.57 195.46 168.57 181.93 147.9 170.91 167.26 171.66 168.57"/><polyline class="cls-2" points="159.09 188.01 182.84 188.01 171.66 168.57 170.17 168.57 159.09 188.01"/><polyline class="cls-2" points="98.9 147.93 85.28 168.57 109.08 168.57 109.92 167.12 98.9 147.93"/><polyline class="cls-2" points="149.54 130.06 140.38 114.1 131.2 130.06 149.54 130.06"/><polyline class="cls-2" points="203.99 85.21 203.66 84.76 165.38 84.76 182.36 113.56 203.99 85.21"/><polyline class="cls-2" points="170.03 129.7 181.94 114.1 159.81 114.1 170.03 129.7"/><polyline class="cls-2" points="159.81 114.1 140.62 84.76 121.24 114.1 159.81 114.1"/><polyline class="cls-2" points="55.93 188.01 54.48 188.01 35.3 220.53 79.24 220.53 79.79 219.58 55.93 188.01"/><polyline class="cls-2" points="112.61 262.95 140.38 299.64 168.14 262.95 112.61 262.95"/><polyline class="cls-2" points="79.24 220.53 54.88 262.95 112.61 262.95 80.53 220.53 79.24 220.53"/><polyline class="cls-2" points="52.6 114.1 0 114.1 27.76 150.81 53.74 116.03 52.6 114.1"/><polyline class="cls-2" points="75.34 152.64 55.11 186.94 55.93 188.01 96.22 188.01 75.34 152.64"/><polyline class="cls-2" points="168.14 262.95 225.86 262.95 201.51 220.54 200.21 220.54 168.14 262.95"/><polyline class="cls-2" points="226.28 188.01 280.75 188.01 252.98 150.81 225.64 186.94 226.28 188.01"/><polyline class="cls-2" points="228.14 114.1 227 116.03 252.98 150.81 280.75 114.1 228.14 114.1"/><polyline class="cls-2" points="200.95 219.58 201.51 220.54 245.46 220.54 226.28 188.01 224.82 188.01 200.95 219.58"/><polyline class="cls-2" points="27.76 150.81 0 188.01 54.48 188.01 55.11 186.94 27.76 150.81"/><polyline class="cls-2" points="225.56 114.1 228.14 114.1 245.46 84.76 204.34 84.76 203.99 85.21 225.56 114.1"/><polyline class="cls-2" points="140.58 220.54 115.39 220.53 140.38 262.89 165.35 220.54 140.58 220.54"/><polyline class="cls-2" points="165.35 220.54 200.21 220.54 200.95 219.58 183.67 189.5 165.35 220.54"/><polyline class="cls-2" points="204.34 84.76 236.69 42.36 171.99 42.36 203.66 84.76 204.34 84.76"/><polyline class="cls-2" points="76.75 85.21 76.41 84.76 35.3 84.76 52.6 114.1 55.2 114.1 76.75 85.21"/><polyline class="cls-2" points="224.82 188.01 225.64 186.94 205.4 152.64 184.52 188.01 224.82 188.01"/><polyline class="cls-2" points="182.68 114.1 205.4 152.64 227 116.03 225.56 114.1 182.68 114.1"/><polyline class="cls-2" points="108.75 42.36 44.05 42.36 76.41 84.76 77.08 84.76 108.75 42.36"/><polyline class="cls-2" points="79.79 219.58 80.53 220.53 115.39 220.53 97.07 189.5 79.79 219.58"/><polyline class="cls-2" points="140.38 42.36 171.99 42.36 140.38 0 108.75 42.36 140.38 42.36"/><polyline class="cls-2" points="100.96 145.55 114.14 159.77 122.3 145.55 100.96 145.55"/><polyline class="cls-2" points="110.98 130.06 122.53 145.18 131.2 130.06 110.98 130.06"/><polyline class="cls-2" points="192.09 130.06 170.27 130.06 181.93 147.9 192.09 130.06"/><polyline class="cls-2" points="180.06 145.55 158.44 145.55 166.66 159.86 180.06 145.55"/><polyline class="cls-2" points="122.28 168.57 140.28 187.98 158.47 168.57 122.28 168.57"/><polyline class="cls-2" points="121.92 188.01 140.58 220.54 159.09 188.01 121.92 188.01"/><polyline class="cls-2" points="88.65 130.06 98.9 147.93 110.71 130.06 88.65 130.06"/><polyline class="cls-2" points="169.77 130.06 149.54 130.06 158.23 145.18 169.77 130.06"/><polyline class="cls-2" points="157.94 145.55 122.8 145.55 140.38 168.57 157.94 145.55"/><polyline class="cls-2" points="170.17 168.57 170.91 167.26 166.66 159.86 158.47 168.57 170.17 168.57"/><polyline class="cls-2" points="109.92 167.12 110.75 168.57 122.28 168.57 114.14 159.77 109.92 167.12"/><path class="cls-3" d="M504.5,434.27H403.2v-10.2l10.26-.78c4.51-.34,7.62-.86,9.35-1.55,3.18-1.29,5.34-3,6.51-5.1a16.88,16.88,0,0,0,1.74-8.1V278.36a17.17,17.17,0,0,0-1.68-7.76q-1.67-3.36-6.57-5.44a58.93,58.93,0,0,0-9.17-2.65,104.79,104.79,0,0,0-10.44-1.87V250.42H504.5v10.22c-2.58.26-5.81.62-9.67,1.1a52.66,52.66,0,0,0-9.81,2c-3.36,1.12-5.59,2.86-6.7,5.24a18.75,18.75,0,0,0-1.69,8.08V407.11a16.78,16.78,0,0,0,1.75,8c1.17,2.2,3.37,4,6.64,5.37a45,45,0,0,0,9,2.27,96.54,96.54,0,0,0,10.52,1.35v10.2" transform="translate(-72 -195.36)"/><path class="cls-3" d="M636,434.27H534.68v-10.2l10.26-.78q6.76-.51,9.35-1.55c3.17-1.29,5.35-3,6.52-5.1a16.88,16.88,0,0,0,1.74-8.1V278.36a17,17,0,0,0-1.69-7.76c-1.11-2.24-3.31-4.05-6.57-5.44a59.08,59.08,0,0,0-9.16-2.65,104.42,104.42,0,0,0-10.45-1.87V250.42H636v10.22c-2.58.26-5.81.62-9.68,1.1a52.37,52.37,0,0,0-9.8,2c-3.36,1.12-5.59,2.86-6.7,5.24a18.6,18.6,0,0,0-1.69,8.08V407.11a16.9,16.9,0,0,0,1.75,8q1.74,3.3,6.64,5.37a44.6,44.6,0,0,0,9,2.27A96.54,96.54,0,0,0,636,424.07v10.2" transform="translate(-72 -195.36)"/><path class="cls-3" d="M831.17,299.48H821q-3.74-10.71-13.18-22.76t-17.92-13.23c-2.58-.34-6-.65-10.29-.91s-8.23-.37-11.83-.37h-28.4v72h18.2A45.63,45.63,0,0,0,771,332.46a23.45,23.45,0,0,0,10.08-6.26q3.21-3.22,6.25-10.8a53.08,53.08,0,0,0,3.69-13h9.74v77.11h-9.74a50,50,0,0,0-4-14.16c-2.32-5.56-4.31-9.23-5.93-11.05a22.62,22.62,0,0,0-9.56-6.14,42.71,42.71,0,0,0-13.93-2h-18.2V407.1a17,17,0,0,0,1.73,8q1.73,3.31,6.62,5.38a41.91,41.91,0,0,0,7.75,2.15q4.92,1,9.81,1.48v10.2H667.15v-10.2c2.48-.26,5.77-.62,9.87-1.1a34.69,34.69,0,0,0,8.6-1.75,11.87,11.87,0,0,0,6.43-5.05,17.07,17.07,0,0,0,1.79-8.28V278.36a17.55,17.55,0,0,0-1.6-7.69c-1.08-2.21-3.27-4-6.62-5.51a54.37,54.37,0,0,0-9.49-2.85q-5.91-1.28-9-1.67V250.42h164v49.06" transform="translate(-72 -195.36)"/><path class="cls-3" d="M1029.67,375.41l-3.6,58.86h-168v-10.2c3-.26,6.5-.66,10.52-1.23a40.63,40.63,0,0,0,7.95-1.62,11.91,11.91,0,0,0,6.43-5.05,17,17,0,0,0,1.78-8.28V278.36a18.1,18.1,0,0,0-1.41-7.69q-1.41-3-6.8-5.51a43.75,43.75,0,0,0-9.55-2.91c-3.72-.73-6.7-1.26-8.92-1.61V250.42H958.18v10.22c-2.75.26-6,.62-9.73,1.1a55.82,55.82,0,0,0-9.74,2c-3.35,1.12-5.59,2.88-6.71,5.24a18.92,18.92,0,0,0-1.67,8.1V397.89a62.31,62.31,0,0,0,1.15,13.47,11.69,11.69,0,0,0,4.51,7.26,19.62,19.62,0,0,0,9.34,3.17,147.11,147.11,0,0,0,16.54.71,159.63,159.63,0,0,0,20-1.22c6.48-.83,11.13-2.61,14-5.38q6.55-6.58,13.44-18.56a187.85,187.85,0,0,0,11-21.93h9.35" transform="translate(-72 -195.36)"/></svg>