<?xml version="1.0" encoding="utf-8"?>
<!-- Generator: Adobe Illustrator 19.2.1, SVG Export Plug-In . SVG Version: 6.00 Build 0)  -->
<svg version="1.1" xmlns="http://www.w3.org/2000/svg" xmlns:xlink="http://www.w3.org/1999/xlink" x="0px" y="0px"
	 viewBox="0 0 652 652" style="enable-background:new 0 0 652 652;" xml:space="preserve">
<style type="text/css">
	.st0{fill:#0C0407;}
	.st1{fill:#FFD13F;}
	.st2{fill:#FFFFFF;}
	.st3{fill:#636466;}
</style>
<g id="Layer_1">
	<g>
		<path class="st0" d="M240,670.9l1.6-0.1c0.1,0.6,0.3,1.2,0.5,1.6c0.3,0.4,0.7,0.7,1.3,1c0.6,0.3,1.2,0.4,2,0.4
			c0.7,0,1.2-0.1,1.7-0.3s0.9-0.5,1.1-0.8s0.4-0.7,0.4-1.1c0-0.4-0.1-0.8-0.4-1.1s-0.6-0.6-1.2-0.8c-0.3-0.1-1.1-0.3-2.3-0.6
			s-2-0.6-2.5-0.8c-0.6-0.3-1.1-0.7-1.4-1.2c-0.3-0.5-0.5-1-0.5-1.6c0-0.7,0.2-1.3,0.6-1.8s0.9-1,1.6-1.3s1.5-0.4,2.4-0.4
			c1,0,1.8,0.2,2.5,0.5c0.7,0.3,1.3,0.8,1.7,1.4s0.6,1.3,0.6,2l-1.6,0.1c-0.1-0.8-0.4-1.4-0.9-1.8c-0.5-0.4-1.3-0.6-2.2-0.6
			c-1,0-1.8,0.2-2.3,0.6c-0.5,0.4-0.7,0.8-0.7,1.4c0,0.5,0.2,0.8,0.5,1.1c0.3,0.3,1.2,0.6,2.6,0.9c1.4,0.3,2.3,0.6,2.9,0.8
			c0.8,0.3,1.3,0.8,1.7,1.3s0.5,1.1,0.5,1.8c0,0.7-0.2,1.3-0.6,1.9c-0.4,0.6-1,1.1-1.7,1.4c-0.7,0.3-1.6,0.5-2.5,0.5
			c-1.2,0-2.1-0.2-2.9-0.5c-0.8-0.3-1.4-0.9-1.9-1.5C240.3,672.6,240,671.8,240,670.9z"/>
		<path class="st0" d="M258.8,672.1l1.6,0.2c-0.3,1-0.7,1.7-1.4,2.2s-1.6,0.8-2.7,0.8c-1.4,0-2.4-0.4-3.2-1.3
			c-0.8-0.8-1.2-2-1.2-3.5c0-1.6,0.4-2.8,1.2-3.7s1.9-1.3,3.1-1.3c1.2,0,2.3,0.4,3.1,1.3s1.2,2,1.2,3.6c0,0.1,0,0.2,0,0.4h-7
			c0.1,1,0.3,1.8,0.9,2.4s1.2,0.8,2,0.8c0.6,0,1.1-0.2,1.5-0.5S258.6,672.7,258.8,672.1z M253.6,669.5h5.2c-0.1-0.8-0.3-1.4-0.6-1.8
			c-0.5-0.6-1.2-0.9-2-0.9c-0.7,0-1.3,0.2-1.8,0.7S253.6,668.7,253.6,669.5z"/>
		<path class="st0" d="M268.8,672.1l1.6,0.2c-0.3,1-0.7,1.7-1.4,2.2s-1.6,0.8-2.7,0.8c-1.4,0-2.4-0.4-3.2-1.3
			c-0.8-0.8-1.2-2-1.2-3.5c0-1.6,0.4-2.8,1.2-3.7s1.9-1.3,3.1-1.3c1.2,0,2.3,0.4,3.1,1.3s1.2,2,1.2,3.6c0,0.1,0,0.2,0,0.4h-7
			c0.1,1,0.3,1.8,0.9,2.4s1.2,0.8,2,0.8c0.6,0,1.1-0.2,1.5-0.5S268.6,672.7,268.8,672.1z M263.6,669.5h5.2c-0.1-0.8-0.3-1.4-0.6-1.8
			c-0.5-0.6-1.2-0.9-2-0.9c-0.7,0-1.3,0.2-1.8,0.7S263.7,668.7,263.6,669.5z"/>
		<path class="st0" d="M272.4,675.1v-12.9h1.6v7.3l3.7-3.8h2l-3.6,3.5l3.9,5.9h-2l-3.1-4.8l-1.1,1.1v3.7H272.4z"/>
		<path class="st0" d="M285.3,675.1l-5-12.9h1.8l3.3,9.4c0.3,0.8,0.5,1.5,0.7,2.1c0.2-0.7,0.4-1.4,0.7-2.1l3.5-9.4h1.7l-5,12.9
			H285.3z"/>
		<path class="st0" d="M298.8,672.1l1.6,0.2c-0.3,1-0.7,1.7-1.4,2.2s-1.6,0.8-2.7,0.8c-1.4,0-2.4-0.4-3.2-1.3
			c-0.8-0.8-1.2-2-1.2-3.5c0-1.6,0.4-2.8,1.2-3.7s1.9-1.3,3.1-1.3c1.2,0,2.3,0.4,3.1,1.3s1.2,2,1.2,3.6c0,0.1,0,0.2,0,0.4h-7
			c0.1,1,0.3,1.8,0.9,2.4s1.2,0.8,2,0.8c0.6,0,1.1-0.2,1.5-0.5S298.6,672.7,298.8,672.1z M293.6,669.5h5.2c-0.1-0.8-0.3-1.4-0.6-1.8
			c-0.5-0.6-1.2-0.9-2-0.9c-0.7,0-1.3,0.2-1.8,0.7S293.7,668.7,293.6,669.5z"/>
		<path class="st0" d="M308.5,671.7l1.6,0.2c-0.2,1.1-0.6,1.9-1.3,2.5c-0.7,0.6-1.6,0.9-2.6,0.9c-1.3,0-2.3-0.4-3.1-1.3
			c-0.8-0.8-1.2-2-1.2-3.6c0-1,0.2-1.9,0.5-2.6s0.8-1.3,1.5-1.7c0.7-0.4,1.4-0.6,2.2-0.6c1,0,1.8,0.3,2.5,0.8s1.1,1.2,1.2,2.2
			l-1.5,0.2c-0.1-0.6-0.4-1.1-0.8-1.4s-0.8-0.5-1.3-0.5c-0.8,0-1.4,0.3-1.9,0.9c-0.5,0.6-0.7,1.5-0.7,2.7c0,1.3,0.2,2.2,0.7,2.7
			s1.1,0.9,1.9,0.9c0.6,0,1.1-0.2,1.6-0.6S308.4,672.4,308.5,671.7z"/>
		<path class="st0" d="M314.9,673.7l0.2,1.4c-0.4,0.1-0.8,0.1-1.2,0.1c-0.6,0-1-0.1-1.3-0.3s-0.5-0.4-0.7-0.7s-0.2-0.9-0.2-1.9V667
			h-1.2v-1.2h1.2v-2.3l1.6-0.9v3.3h1.6v1.2h-1.6v5.5c0,0.5,0,0.7,0.1,0.9s0.1,0.2,0.3,0.3c0.1,0.1,0.3,0.1,0.5,0.1
			C314.4,673.7,314.6,673.7,314.9,673.7z"/>
		<path class="st0" d="M315.9,670.4c0-1.7,0.5-3,1.4-3.8c0.8-0.7,1.8-1,2.9-1c1.3,0,2.3,0.4,3.1,1.3s1.2,2,1.2,3.5
			c0,1.2-0.2,2.1-0.5,2.8c-0.4,0.7-0.9,1.2-1.6,1.6s-1.4,0.6-2.3,0.6c-1.3,0-2.4-0.4-3.2-1.3C316.3,673.2,315.9,672,315.9,670.4z
			 M317.5,670.4c0,1.2,0.3,2.1,0.8,2.7c0.5,0.6,1.2,0.9,2,0.9c0.8,0,1.4-0.3,2-0.9s0.8-1.5,0.8-2.7c0-1.2-0.3-2-0.8-2.6
			c-0.5-0.6-1.2-0.9-2-0.9c-0.8,0-1.4,0.3-2,0.9S317.5,669.2,317.5,670.4z"/>
		<path class="st0" d="M326.4,675.1v-9.3h1.4v1.4c0.4-0.7,0.7-1.1,1-1.3c0.3-0.2,0.6-0.3,1-0.3c0.5,0,1.1,0.2,1.6,0.5l-0.5,1.5
			c-0.4-0.2-0.8-0.3-1.2-0.3c-0.3,0-0.7,0.1-0.9,0.3s-0.5,0.5-0.6,0.9c-0.2,0.6-0.3,1.2-0.3,1.8v4.9H326.4z"/>
		<path class="st0" d="M332.6,675.1v-12.9h1.7v11.4h6.3v1.5H332.6z"/>
		<path class="st0" d="M341.9,670.4c0-1.7,0.5-3,1.4-3.8c0.8-0.7,1.8-1,2.9-1c1.3,0,2.3,0.4,3.1,1.3s1.2,2,1.2,3.5
			c0,1.2-0.2,2.1-0.5,2.8c-0.4,0.7-0.9,1.2-1.6,1.6s-1.4,0.6-2.3,0.6c-1.3,0-2.4-0.4-3.2-1.3C342.3,673.2,341.9,672,341.9,670.4z
			 M343.5,670.4c0,1.2,0.3,2.1,0.8,2.7c0.5,0.6,1.2,0.9,2,0.9c0.8,0,1.4-0.3,2-0.9s0.8-1.5,0.8-2.7c0-1.2-0.3-2-0.8-2.6
			c-0.5-0.6-1.2-0.9-2-0.9c-0.8,0-1.4,0.3-2,0.9S343.5,669.2,343.5,670.4z"/>
		<path class="st0" d="M352.2,675.8l1.5,0.2c0.1,0.5,0.2,0.8,0.5,1c0.4,0.3,0.9,0.4,1.6,0.4c0.7,0,1.3-0.1,1.7-0.4s0.7-0.7,0.8-1.2
			c0.1-0.3,0.1-1,0.1-2c-0.7,0.8-1.6,1.2-2.6,1.2c-1.3,0-2.3-0.5-3-1.4s-1.1-2-1.1-3.3c0-0.9,0.2-1.7,0.5-2.5
			c0.3-0.8,0.8-1.3,1.4-1.7s1.3-0.6,2.2-0.6c1.1,0,2,0.4,2.7,1.3v-1.1h1.5v8.1c0,1.5-0.1,2.5-0.4,3.1c-0.3,0.6-0.8,1.1-1.4,1.4
			c-0.6,0.4-1.4,0.5-2.4,0.5c-1.1,0-2-0.3-2.7-0.8C352.5,677.6,352.2,676.9,352.2,675.8z M353.5,670.2c0,1.2,0.2,2.1,0.7,2.7
			s1.1,0.8,1.8,0.8c0.7,0,1.3-0.3,1.8-0.8s0.7-1.4,0.7-2.6c0-1.1-0.3-2-0.8-2.6c-0.5-0.6-1.1-0.9-1.8-0.9c-0.7,0-1.3,0.3-1.8,0.9
			C353.7,668.3,353.5,669.1,353.5,670.2z"/>
		<path class="st0" d="M361.9,670.4c0-1.7,0.5-3,1.4-3.8c0.8-0.7,1.8-1,2.9-1c1.3,0,2.3,0.4,3.1,1.3s1.2,2,1.2,3.5
			c0,1.2-0.2,2.1-0.5,2.8c-0.4,0.7-0.9,1.2-1.6,1.6s-1.4,0.6-2.3,0.6c-1.3,0-2.4-0.4-3.2-1.3C362.3,673.2,361.9,672,361.9,670.4z
			 M363.5,670.4c0,1.2,0.3,2.1,0.8,2.7c0.5,0.6,1.2,0.9,2,0.9c0.8,0,1.4-0.3,2-0.9s0.8-1.5,0.8-2.7c0-1.2-0.3-2-0.8-2.6
			c-0.5-0.6-1.2-0.9-2-0.9c-0.8,0-1.4,0.3-2,0.9S363.5,669.2,363.5,670.4z"/>
		<path class="st0" d="M372.9,675.1v-1.8h1.8v1.8H372.9z"/>
		<path class="st0" d="M386.9,670.6l1.7,0.4c-0.4,1.4-1,2.5-1.9,3.2s-2.1,1.1-3.4,1.1c-1.4,0-2.5-0.3-3.4-0.8
			c-0.9-0.6-1.5-1.4-2-2.5c-0.5-1.1-0.7-2.2-0.7-3.5c0-1.3,0.3-2.5,0.8-3.5c0.5-1,1.2-1.8,2.2-2.3c0.9-0.5,2-0.8,3.1-0.8
			c1.3,0,2.4,0.3,3.3,1s1.5,1.6,1.8,2.8l-1.7,0.4c-0.3-0.9-0.7-1.6-1.3-2s-1.3-0.6-2.1-0.6c-1,0-1.8,0.2-2.5,0.7
			c-0.7,0.5-1.1,1.1-1.4,1.9c-0.3,0.8-0.4,1.6-0.4,2.5c0,1.1,0.2,2.1,0.5,2.9c0.3,0.8,0.8,1.4,1.5,1.8s1.4,0.6,2.2,0.6
			c1,0,1.8-0.3,2.4-0.8S386.7,671.6,386.9,670.6z"/>
		<path class="st0" d="M389.9,670.4c0-1.7,0.5-3,1.4-3.8c0.8-0.7,1.8-1,2.9-1c1.3,0,2.3,0.4,3.1,1.3s1.2,2,1.2,3.5
			c0,1.2-0.2,2.1-0.5,2.8c-0.4,0.7-0.9,1.2-1.6,1.6s-1.4,0.6-2.3,0.6c-1.3,0-2.4-0.4-3.2-1.3C390.3,673.2,389.9,672,389.9,670.4z
			 M391.5,670.4c0,1.2,0.3,2.1,0.8,2.7c0.5,0.6,1.2,0.9,2,0.9c0.8,0,1.4-0.3,2-0.9s0.8-1.5,0.8-2.7c0-1.2-0.3-2-0.8-2.6
			c-0.5-0.6-1.2-0.9-2-0.9c-0.8,0-1.4,0.3-2,0.9S391.5,669.2,391.5,670.4z"/>
		<path class="st0" d="M400.5,675.1v-9.3h1.4v1.3c0.3-0.5,0.7-0.8,1.2-1.1s1-0.4,1.7-0.4c0.7,0,1.3,0.1,1.7,0.4
			c0.4,0.3,0.8,0.7,0.9,1.2c0.7-1.1,1.7-1.6,2.9-1.6c0.9,0,1.6,0.3,2.1,0.8s0.7,1.3,0.7,2.4v6.4h-1.6v-5.9c0-0.6-0.1-1.1-0.2-1.4
			c-0.1-0.3-0.3-0.5-0.6-0.7s-0.6-0.3-0.9-0.3c-0.7,0-1.2,0.2-1.6,0.7c-0.4,0.4-0.7,1.1-0.7,2.1v5.4h-1.6V669c0-0.7-0.1-1.2-0.4-1.6
			s-0.7-0.5-1.3-0.5c-0.4,0-0.9,0.1-1.2,0.4c-0.4,0.2-0.7,0.6-0.8,1s-0.3,1.1-0.3,2v4.8H400.5z"/>
	</g>
</g>
<g id="Layer_2">
	<g>
		<path class="st1" d="M61.7,361.7l-0.6-5l-3.3,0.2l0.4,5.1L61.7,361.7z M99.9,368c2.7,1.2,6,4.1,9.3,5.3l-1.9-10.9
			c-1-1.4-1.9-1.9-3.1-1.9c-1.4,1-2.9,1.6-4.3,2.1V368z M116.2,349.3l-7.4,0.4L112,374c1.6,0.7,3,1,4.4,1c1,0,2-0.2,3-0.6
			L116.2,349.3z M134,341.7h-10.9c0,1.7,0.1,3.2,1.9,3.2c0.2,0,0.4,0,0.6,0l3.5-2.5c0.2,1.1,0.8,1.6,1.6,1.6c0.8,0,1.8-0.5,2.7-1.4
			C133.7,342.3,133.7,341.9,134,341.7 M150.1,346.8l-30.8,2.3l3.5,25.3l30.2-4.3L150.1,346.8z M639.4,401.6v-59.9H138
			c0,1.4,0.2,2.8-0.4,4.5l15-1.5l4.1,31.8l-35,5.2c1,2.1,1,4.1,0,5c-0.5,0.5-1.2,0.7-2.1,0.7c-0.6,0-1.3-0.1-2-0.3l-32.7-8.6
			L80,363.9c-0.7-0.5-1.5-0.8-2.1-0.8c-0.8,0-1.5,0.3-2,1l-1.6,6.4l-42.6,4.3c-2.1-0.2-2.3-3.7-0.8-4.5l23-5.7l-0.8-6.2
			c-11.5-2.6-20.8-5.1-23-7.2l1.6-9.5H15.8v59.9H639.4z"/>
		<path d="M175.3,278.6c-1.2-1.7-1.9-4.7-1.9-9c0-5.3,1-8.9,2.9-10.6c1.9-1.8,6.6-2.7,14-2.7c7.2,0,12.1,0.2,14.6,0.6
			c2.6,0.4,4.4,1.2,5.4,2.2c0.7,0.7,1.2,1.8,1.5,3.3c0.3,1.5,0.5,3.6,0.5,6.4v1.9h8.1c0-0.4,0.1-0.9,0.1-1.4c0-0.5,0-1.3,0-2.3
			c0-3.4-0.3-6.2-1-8.5c-0.7-2.3-1.7-4-3.1-5.2c-2-1.8-4.6-3.1-7.6-3.9c-3-0.7-8.2-1.1-15.6-1.1h-2.6c-6.6,0-11.3,0.3-13.9,0.8
			c-2.6,0.6-4.7,1.5-6.1,2.9c-1.9,1.8-3.2,4-4.1,6.7c-0.8,2.7-1.3,6.2-1.3,10.7c0,7,1.3,12,3.8,15c2.6,3,7.2,4.7,13.8,5.3l22.3,1.8
			c3.2,0.3,5.3,1.1,6.4,2.6c1.1,1.4,1.6,5,1.6,10.6c0,2.8-0.1,5-0.4,6.6c-0.3,1.6-0.7,2.8-1.4,3.5c-1.1,1.3-2.8,2.2-5,2.7
			c-2.3,0.6-5.5,0.8-9.6,0.8c-7.6,0-12.6-0.1-15-0.4c-2.4-0.3-4.2-0.8-5.4-1.5c-1.5-0.9-2.6-2.4-3.2-4.5c-0.6-2.1-1-5.5-1-10v-1.4
			h-8.1v3.7c0,4.3,0.4,7.8,1.3,10.6c0.9,2.8,2.2,5,4,6.6c1.8,1.8,4.1,3,6.9,3.7c2.8,0.7,7.5,1.1,14.1,1.1h3.6
			c7.8,0,13.2-0.4,16.2-1.2c3-0.8,5.3-2.3,7.1-4.4c1.4-1.7,2.4-3.8,3.1-6.3c0.6-2.5,0.9-6.2,0.9-11.2c0-6.8-1.2-11.7-3.6-14.6
			c-2.4-2.9-6.6-4.6-12.5-5.2l-22.7-2C178.9,281.3,176.5,280.3,175.3,278.6 M287.4,325.4h8v-76.1h-8v32.8h-41.6v-32.8h-8v76.1h8
			v-35.2h41.6V325.4z M356.4,285.5c-1.9,1.6-5.8,2.4-11.8,2.4h-23v-30.4h23c6.1,0,10.1,0.8,11.9,2.3c1.8,1.5,2.7,4.4,2.7,8.5v8.9
			C359.2,281.1,358.3,283.9,356.4,285.5 M359.2,325.4h8.3v-18.3c0-4.8-0.7-8.4-2.1-10.6c-1.4-2.2-3.8-3.8-7.2-4.6
			c3.1-0.6,5.5-2,7-4.3c1.5-2.3,2.3-5.4,2.3-9.4v-11.5c0-6.5-1.5-11-4.6-13.6c-3.1-2.5-8.6-3.8-16.8-3.8h-32.6v76.1h8v-29.6h25.6
			c4.8,0,7.9,1,9.6,2.9c1.6,1.9,2.5,5.6,2.5,11.1V325.4z M387.8,325.4h8.1v-76.1h-8.1V325.4z M457,285.5c-1.9,1.6-5.8,2.4-11.8,2.4
			h-23v-30.4h23c6.1,0,10.1,0.8,11.9,2.3c1.8,1.5,2.7,4.4,2.7,8.5v8.9C459.8,281.1,458.8,283.9,457,285.5 M459.8,325.4h8.3v-18.3
			c0-4.8-0.7-8.4-2.1-10.6c-1.4-2.2-3.8-3.8-7.2-4.6c3.1-0.6,5.5-2,7-4.3c1.5-2.3,2.3-5.4,2.3-9.4v-11.5c0-6.5-1.5-11-4.6-13.6
			c-3.1-2.5-8.6-3.8-16.8-3.8h-32.6v76.1h8v-29.6h25.6c4.8,0,7.9,1,9.6,2.9c1.6,1.9,2.5,5.6,2.5,11.1V325.4z M529.8,298.4h-31.3
			l14.3-41h2.6L529.8,298.4z M539.2,325.4h8.2l-26.8-76.1h-13.2l-26.7,76.1h8.2l6.7-19.5h36.5L539.2,325.4z M637.6,325.4v-76.1
			h-13.2l-24.5,67.8l-24.7-67.8h-13.2v76.1h8v-69l24.9,69h9.8l24.9-69v69H637.6z"/>
		<path d="M186.3,384c1.2-1.1,1.8-2.9,1.8-5.7v-1.6h-2.8c0,0.1,0,0.3,0,0.5c0,0.2,0,0.4,0,0.7c0,2-0.4,3.4-1.1,4.1
			c-0.7,0.7-2.2,1.1-4.5,1.1h-1.9c-1.5,0-2.6-0.1-3.3-0.3c-0.6-0.2-1.2-0.5-1.6-0.9c-0.4-0.4-0.8-1-0.9-1.6
			c-0.2-0.7-0.3-1.9-0.3-3.7v-7c0-1.8,0.1-3,0.3-3.7c0.2-0.7,0.5-1.2,0.9-1.6c0.4-0.4,1-0.7,1.7-0.9c0.7-0.2,1.7-0.3,3.2-0.3h1.9
			c2.2,0,3.7,0.3,4.4,1c0.8,0.7,1.1,1.9,1.1,3.8v0.7h2.8v-1.1c0-2.5-0.6-4.3-1.8-5.4c-1.2-1.1-3.3-1.6-6.3-1.6h-2.9
			c-3,0-5.1,0.6-6.3,1.8c-1.2,1.2-1.8,3.4-1.8,6.5v8.3c0,3.1,0.6,5.3,1.8,6.5c1.2,1.2,3.3,1.8,6.3,1.8h2.9
			C183,385.6,185.1,385.1,186.3,384 M204.6,378.2c0,2.2-0.3,3.6-0.8,4.2c-0.6,0.6-1.7,0.9-3.5,0.9h-1.2c-1.7,0-2.9-0.3-3.4-0.9
			c-0.5-0.6-0.8-2-0.8-4.2v-3c0-2.2,0.3-3.6,0.8-4.2c0.5-0.6,1.7-0.9,3.5-0.9h1.2c1.8,0,2.9,0.3,3.5,0.9c0.6,0.6,0.8,2,0.8,4.2
			V378.2z M205.7,384c1-1,1.5-2.8,1.5-5.3v-4.1c0-2.5-0.5-4.3-1.5-5.3c-1-1-2.8-1.5-5.4-1.5h-1.2c-2.6,0-4.4,0.5-5.4,1.5
			c-1,1-1.5,2.8-1.5,5.3v4.1c0,2.5,0.5,4.3,1.5,5.3c1,1,2.8,1.5,5.4,1.5h1.2C202.9,385.5,204.7,385,205.7,384 M234.3,385.3h2.6V374
			c0-2.3-0.4-3.9-1.3-4.8c-0.9-0.9-2.4-1.3-4.7-1.3c-1.3,0-2.4,0.2-3.2,0.7c-0.8,0.4-1.5,1.2-2,2.2c-0.4-1-1-1.7-1.8-2.2
			c-0.8-0.4-2-0.7-3.4-0.7c-1.4,0-2.5,0.2-3.4,0.6c-0.8,0.4-1.5,1.1-1.8,2V368h-2.5v17.3h2.6v-10c0-1.8,0.4-3.1,1.2-3.9
			c0.8-0.8,2-1.2,3.6-1.2c1.4,0,2.3,0.2,2.8,0.7c0.5,0.5,0.7,1.4,0.7,2.8v11.7h2.5v-10c0-1.8,0.4-3.1,1.1-3.9
			c0.7-0.8,1.9-1.2,3.5-1.2c1.4,0,2.4,0.3,2.9,0.9c0.5,0.6,0.7,1.9,0.7,3.8V385.3z M264.5,385.3h2.6V374c0-2.3-0.4-3.9-1.3-4.8
			c-0.9-0.9-2.4-1.3-4.7-1.3c-1.3,0-2.4,0.2-3.2,0.7c-0.8,0.4-1.5,1.2-2,2.2c-0.4-1-1-1.7-1.8-2.2c-0.8-0.4-2-0.7-3.4-0.7
			c-1.4,0-2.5,0.2-3.4,0.6c-0.8,0.4-1.5,1.1-1.8,2V368h-2.5v17.3h2.6v-10c0-1.8,0.4-3.1,1.2-3.9c0.8-0.8,2-1.2,3.6-1.2
			c1.4,0,2.3,0.2,2.8,0.7c0.5,0.5,0.7,1.4,0.7,2.8v11.7h2.5v-10c0-1.8,0.4-3.1,1.1-3.9c0.7-0.8,1.9-1.2,3.5-1.2
			c1.4,0,2.4,0.3,2.9,0.9c0.5,0.6,0.7,1.9,0.7,3.8V385.3z M284.5,375h-9.8v-0.7c0-1.6,0.3-2.7,0.9-3.3c0.6-0.6,1.7-0.9,3.4-0.9h1.2
			c1.7,0,2.9,0.3,3.4,0.9c0.6,0.6,0.9,1.7,0.9,3.3V375z M274.7,377.3l12.4,0v-2.6c0-2.5-0.5-4.3-1.5-5.3c-1-1-2.8-1.5-5.4-1.5h-1.2
			c-2.6,0-4.4,0.5-5.4,1.5c-1,1-1.5,2.8-1.5,5.3v4.1c0,2.5,0.5,4.3,1.5,5.3c1,1,2.8,1.5,5.4,1.5h1.2c2.3,0,4-0.4,5.1-1.2
			c1.1-0.8,1.7-2.2,1.8-4.1h-2.7c-0.1,1.1-0.4,1.9-1.1,2.3c-0.6,0.4-1.7,0.7-3.2,0.7h-1.2c-1.7,0-2.9-0.3-3.4-0.9
			c-0.6-0.6-0.9-1.8-0.9-3.6c0-0.4,0-0.7,0-0.9C274.7,377.6,274.7,377.4,274.7,377.3 M301.9,374.1h2.6V374c0-2.3-0.4-3.9-1.1-4.8
			c-0.8-0.9-2.1-1.4-4-1.4c-1.3,0-2.3,0.2-3.1,0.6c-0.8,0.4-1.3,1.1-1.7,2V368h-2.5v17.3h2.6v-10c0-1.8,0.3-3.1,1-3.9
			c0.6-0.8,1.7-1.2,3.1-1.2c1.2,0,2,0.2,2.5,0.7c0.4,0.5,0.7,1.4,0.7,2.8V374.1z M321.2,384.1c1.1-1,1.6-2.6,1.6-4.8v-0.3h-2.6v0.3
			c0,1.5-0.3,2.6-0.9,3.1c-0.6,0.6-1.7,0.9-3.4,0.9h-1.2c-1.7,0-2.9-0.3-3.4-0.9c-0.5-0.6-0.8-2-0.8-4.2v-3c0-2.2,0.3-3.6,0.8-4.2
			c0.5-0.6,1.7-0.9,3.5-0.9h1.2c1.7,0,2.8,0.3,3.4,0.8c0.6,0.5,0.9,1.5,1,2.9l2.6,0c0-2.1-0.6-3.7-1.7-4.6c-1.1-0.9-2.8-1.4-5.3-1.4
			h-1.2c-2.6,0-4.4,0.5-5.4,1.5c-1,1-1.5,2.8-1.5,5.3v4.1c0,2.5,0.5,4.3,1.5,5.3c1,1,2.8,1.5,5.4,1.5h1.2
			C318.4,385.5,320.1,385.1,321.2,384.1 M327.9,363.8h2.5v-2.9h-2.5V363.8z M327.9,385.3h2.5V368h-2.5V385.3z M347.6,380.9
			c0,0.7-0.4,1.3-1.3,1.7c-0.9,0.4-2.1,0.6-3.7,0.6c-1.8,0-3-0.2-3.6-0.7c-0.6-0.5-0.9-1.4-0.9-2.7c0-1.2,0.3-2,0.8-2.4
			c0.6-0.4,1.7-0.6,3.4-0.6c1.8,0,3.2,0.2,4,0.6c0.8,0.4,1.3,1,1.3,1.8V380.9z M347.8,385.3h2.3v-12.1c0-1.4-0.1-2.4-0.3-3
			c-0.2-0.6-0.6-1.1-1.1-1.5c-0.5-0.3-1.2-0.6-2.1-0.7c-1-0.2-2.3-0.2-4.2-0.2c-2.3,0-4,0.3-4.9,0.9c-1,0.6-1.4,1.7-1.4,3.2v0.4h2.5
			c0-0.9,0.3-1.5,0.8-1.9c0.5-0.3,1.6-0.5,3.2-0.5c2.2,0,3.6,0.2,4.1,0.6c0.5,0.4,0.8,1.3,0.8,2.7v3c-0.4-0.6-1-1-1.9-1.3
			c-0.8-0.3-2-0.4-3.6-0.4c-1.5,0-2.7,0.1-3.5,0.2c-0.8,0.1-1.4,0.4-1.8,0.7c-0.5,0.4-0.8,1-1.1,1.7c-0.2,0.7-0.3,1.6-0.3,2.9
			c0,2.1,0.5,3.5,1.4,4.3c0.9,0.8,2.7,1.2,5.4,1.2c1.5,0,2.7-0.2,3.6-0.5c0.9-0.3,1.5-0.8,1.9-1.6L347.8,385.3z M355.8,385.3h2.5
			v-24.4h-2.5V385.3z M385.8,385.3l8.9-24.4h-2.9l-7.8,21.9l-7.8-21.9h-2.9l8.9,24.4H385.8z M407.5,375h-9.8v-0.7
			c0-1.6,0.3-2.7,0.9-3.3c0.6-0.6,1.7-0.9,3.4-0.9h1.2c1.7,0,2.9,0.3,3.4,0.9c0.6,0.6,0.9,1.7,0.9,3.3V375z M397.7,377.3l12.4,0
			v-2.6c0-2.5-0.5-4.3-1.5-5.3c-1-1-2.8-1.5-5.4-1.5h-1.2c-2.6,0-4.4,0.5-5.4,1.5c-1,1-1.5,2.8-1.5,5.3v4.1c0,2.5,0.5,4.3,1.5,5.3
			c1,1,2.8,1.5,5.4,1.5h1.2c2.3,0,4-0.4,5.1-1.2c1.1-0.8,1.7-2.2,1.8-4.1h-2.7c-0.1,1.1-0.4,1.9-1.1,2.3c-0.6,0.4-1.7,0.7-3.2,0.7
			h-1.2c-1.7,0-2.9-0.3-3.4-0.9c-0.6-0.6-0.9-1.8-0.9-3.6c0-0.4,0-0.7,0-0.9C397.7,377.6,397.7,377.4,397.7,377.3 M426.9,385.3h2.6
			V374c0-2.3-0.5-3.9-1.4-4.8c-0.9-0.9-2.5-1.4-4.8-1.4c-1.5,0-2.7,0.2-3.6,0.6c-0.9,0.4-1.6,1.1-2,2v-9.5h-2.4v24.4h2.5v-10
			c0-1.8,0.4-3.1,1.3-3.9c0.8-0.8,2.2-1.2,4-1.2c1.5,0,2.6,0.3,3.1,0.9c0.5,0.6,0.8,1.8,0.8,3.6V385.3z M435.1,363.8h2.5v-2.9h-2.5
			V363.8z M435.1,385.3h2.5V368h-2.5V385.3z M456.2,384.1c1.1-1,1.6-2.6,1.6-4.8v-0.3h-2.6v0.3c0,1.5-0.3,2.6-0.9,3.1
			c-0.6,0.6-1.7,0.9-3.4,0.9h-1.2c-1.7,0-2.9-0.3-3.4-0.9c-0.5-0.6-0.8-2-0.8-4.2v-3c0-2.2,0.3-3.6,0.8-4.2c0.5-0.6,1.7-0.9,3.5-0.9
			h1.2c1.7,0,2.8,0.3,3.4,0.8c0.6,0.5,0.9,1.5,1,2.9l2.6,0c0-2.1-0.6-3.7-1.7-4.6c-1.1-0.9-2.8-1.4-5.3-1.4h-1.2
			c-2.6,0-4.4,0.5-5.4,1.5c-1,1-1.5,2.8-1.5,5.3v4.1c0,2.5,0.5,4.3,1.5,5.3c1,1,2.8,1.5,5.4,1.5h1.2
			C453.4,385.5,455.1,385.1,456.2,384.1 M462.9,385.3h2.5v-24.4h-2.5V385.3z M483,375h-9.8v-0.7c0-1.6,0.3-2.7,0.9-3.3
			c0.6-0.6,1.7-0.9,3.4-0.9h1.2c1.7,0,2.9,0.3,3.4,0.9c0.6,0.6,0.9,1.7,0.9,3.3V375z M473.2,377.3l12.4,0v-2.6
			c0-2.5-0.5-4.3-1.5-5.3c-1-1-2.8-1.5-5.4-1.5h-1.2c-2.6,0-4.4,0.5-5.4,1.5c-1,1-1.5,2.8-1.5,5.3v4.1c0,2.5,0.5,4.3,1.5,5.3
			c1,1,2.8,1.5,5.4,1.5h1.2c2.3,0,4-0.4,5.1-1.2c1.1-0.8,1.7-2.2,1.8-4.1H483c-0.1,1.1-0.4,1.9-1.1,2.3c-0.6,0.4-1.7,0.7-3.2,0.7
			h-1.2c-1.7,0-2.9-0.3-3.4-0.9c-0.6-0.6-0.9-1.8-0.9-3.6c0-0.4,0-0.7,0-0.9C473.2,377.6,473.2,377.4,473.2,377.3 M505.6,363.5h12.6
			v-2.6h-15.3v24.4h2.7V374h12.2v-2.5h-12.2V363.5z M523,363.8h2.5v-2.9H523V363.8z M523,385.3h2.5V368H523V385.3z M543,385.3h2.6
			V374c0-2.3-0.5-3.9-1.4-4.8c-0.9-0.9-2.5-1.4-4.8-1.4c-1.5,0-2.7,0.2-3.6,0.6c-0.9,0.4-1.6,1.1-2,2V368h-2.4v17.3h2.5v-10
			c0-1.8,0.4-3.1,1.3-3.9c0.8-0.8,2.2-1.2,4-1.2c1.5,0,2.6,0.3,3.1,0.9c0.5,0.6,0.8,1.8,0.8,3.6V385.3z M562.6,380.9
			c0,0.7-0.4,1.3-1.3,1.7c-0.9,0.4-2.1,0.6-3.7,0.6c-1.8,0-3-0.2-3.6-0.7c-0.6-0.5-0.9-1.4-0.9-2.7c0-1.2,0.3-2,0.8-2.4
			c0.6-0.4,1.7-0.6,3.4-0.6c1.8,0,3.2,0.2,4,0.6c0.8,0.4,1.3,1,1.3,1.8V380.9z M562.8,385.3h2.3v-12.1c0-1.4-0.1-2.4-0.3-3
			c-0.2-0.6-0.6-1.1-1.1-1.5c-0.5-0.3-1.2-0.6-2.1-0.7c-1-0.2-2.3-0.2-4.2-0.2c-2.3,0-4,0.3-4.9,0.9c-1,0.6-1.4,1.7-1.4,3.2v0.4h2.5
			c0-0.9,0.3-1.5,0.8-1.9c0.5-0.3,1.6-0.5,3.2-0.5c2.2,0,3.6,0.2,4.1,0.6c0.5,0.4,0.8,1.3,0.8,2.7v3c-0.4-0.6-1-1-1.9-1.3
			c-0.8-0.3-2-0.4-3.6-0.4c-1.5,0-2.7,0.1-3.5,0.2c-0.8,0.1-1.4,0.4-1.8,0.7c-0.5,0.4-0.8,1-1.1,1.7c-0.2,0.7-0.3,1.6-0.3,2.9
			c0,2.1,0.5,3.5,1.4,4.3c0.9,0.8,2.7,1.2,5.4,1.2c1.5,0,2.7-0.2,3.6-0.5c0.9-0.3,1.5-0.8,1.9-1.6L562.8,385.3z M582.4,385.3h2.6
			V374c0-2.3-0.5-3.9-1.4-4.8c-0.9-0.9-2.5-1.4-4.8-1.4c-1.5,0-2.7,0.2-3.6,0.6c-0.9,0.4-1.6,1.1-2,2V368h-2.4v17.3h2.5v-10
			c0-1.8,0.4-3.1,1.3-3.9c0.8-0.8,2.2-1.2,4-1.2c1.5,0,2.6,0.3,3.1,0.9c0.5,0.6,0.8,1.8,0.8,3.6V385.3z M603.4,384.1
			c1.1-1,1.6-2.6,1.6-4.8v-0.3h-2.6v0.3c0,1.5-0.3,2.6-0.9,3.1c-0.6,0.6-1.7,0.9-3.4,0.9h-1.2c-1.7,0-2.9-0.3-3.4-0.9
			c-0.5-0.6-0.8-2-0.8-4.2v-3c0-2.2,0.3-3.6,0.8-4.2c0.5-0.6,1.7-0.9,3.4-0.9h1.2c1.7,0,2.8,0.3,3.4,0.8c0.6,0.5,0.9,1.5,1,2.9
			l2.6,0c0-2.1-0.6-3.7-1.7-4.6c-1.1-0.9-2.8-1.4-5.3-1.4h-1.2c-2.6,0-4.4,0.5-5.4,1.5c-1,1-1.5,2.8-1.5,5.3v4.1
			c0,2.5,0.5,4.3,1.5,5.3c1,1,2.8,1.5,5.4,1.5h1.2C600.5,385.5,602.3,385.1,603.4,384.1 M621.8,375H612v-0.7c0-1.6,0.3-2.7,0.9-3.3
			c0.6-0.6,1.7-0.9,3.4-0.9h1.2c1.7,0,2.9,0.3,3.4,0.9c0.6,0.6,0.9,1.7,0.9,3.3V375z M624.5,377.2v-2.6c0-2.5-0.5-4.3-1.5-5.3
			c-1-1-2.8-1.5-5.4-1.5h-1.2c-2.6,0-4.4,0.5-5.4,1.5c-1,1-1.5,2.8-1.5,5.3v4.1c0,2.5,0.5,4.3,1.5,5.3c1,1,2.8,1.5,5.4,1.5h1.2
			c2.3,0,4-0.4,5.1-1.2c1.1-0.8,1.7-2.2,1.8-4.1h-2.7c-0.1,1.1-0.4,1.9-1.1,2.3c-0.6,0.4-1.7,0.7-3.2,0.7h-1.2
			c-1.7,0-2.9-0.3-3.4-0.9c-0.6-0.6-0.9-1.8-0.9-3.6c0-0.4,0-0.7,0-0.9c0-0.2,0-0.4,0-0.6L624.5,377.2z"/>
		<path class="st2" d="M87.6,290.1c1.2,2.4,3.1,4.5,5.3,6.3c1,0.8,1.8,1.2,2.7,1.2c0.8,0,1.5-0.4,2.2-1.2c2.3-2.9,4.7-7,5.4-9.9
			c0.2-1.1-0.5-1.7-1.4-1.7c-0.4,0-0.7,0.1-1.1,0.2c-3.5,1.1-7.4,2.2-11.5,3c-0.1,0-0.2,0-0.3,0C87.9,288,87.4,288.7,87.6,290.1
			 M67,287.2c0.6,2.9,2.1,5.9,6,9.4c0.6,0.5,0.9,0.7,1.1,0.7c0.3,0,0.6-0.3,1.4-0.7c2.1-1.8,3.3-3.5,4.5-5.8c0.4-1.6,0-2.1-1.4-2.3
			c-4.1-1-5.9-2.4-9.4-3.5c-0.3-0.1-0.6-0.2-0.9-0.2C67.3,284.7,66.5,285.4,67,287.2 M25.5,233.5c0.4,0,0.8-0.2,1.2-0.6
			c-1.2-1.9-1.8-5-2-6.8c-0.3-0.1-0.6-0.2-0.8-0.2c-0.7,0-1,0.7-1.1,1.8C22.7,230.9,24.1,233.5,25.5,233.5 M30.5,232.1
			c0.7,0,1.5-0.3,2.3-1.1c-1.4-2.8-2.1-5.5-2.1-7.8c0,0,0,0,0,0c-0.4-0.2-0.8-0.2-1.2-0.2c-0.6,0-1,0.2-1.3,0.7
			c-0.3,0.5-0.5,1.1-0.6,1.9C27.3,229.6,28.6,232.1,30.5,232.1 M38,230c-1.9-3.7-0.8-7.8-1.1-9.9c-0.2,0-0.4,0-0.6,0
			c-0.2,0-0.4,0-0.6,0c-0.3,0.1-0.7,0.2-0.9,0.4c-0.5,0.4-0.9,1-1.2,2c-0.6,2.5,0,5.5,2.4,8.6c0.4,0.3,0.7,0.4,1,0.4
			C37.4,231.3,37.7,230.9,38,230 M39.9,221.6l3.7,1c-0.4-4.3-1.4-7.8-2.6-10.3c-0.5-0.2-0.9-0.3-1.3-0.3c-0.9,0-1.3,0.6-1.3,1.9
			C38.8,216,39.1,218.5,39.9,221.6 M46.7,235.8c0.4-1.6,0.2-2.9-0.4-4.3c-1.5-4.1-2.5-5.6-3.9-6.4c-0.4-0.4-0.9-0.5-1.4-0.5
			c-0.8,0-1.4,0.5-1.5,1.3c-0.2,1.8,1,3.5,2.5,5.2c-2.1,0.6-3.5,1.4-3.7,2.9c-0.2,2.3,0.2,2.9,2.5,4.7c0.6,1,0,2-0.8,2.1
			c-0.6-1-1.9-1.9-2.7-2.9c-1.4-1.2-1.9-2.3-2.1-3.5c-0.4-1-0.8-1.7-1.4-1.7c-0.3,0-0.7,0.2-1.1,0.6c-0.8,0.5-3.3,0.5-4.5,1
			c-1,0.4-1.5,1.1-1.4,2.7c0,2.9,0.4,5.2,3.5,6.8c0.5,0.2,1.1,0.3,1.6,0.3c1.4,0,2.8-0.6,3.6-1.8c1.1,0.7,2.4,1,3.6,1
			C42.6,243.3,45.9,240.8,46.7,235.8 M96.8,258.4c0,1.3-1,2.3-2.3,2.3c-1.4,0-2.4-1-2.4-2.3c0-1.4,1-2.4,2.4-2.4
			C95.8,256,96.8,257,96.8,258.4 M71.5,259c0-1.4,1.1-2.3,2.4-2.3c1.3,0,2.5,1,2.5,2.3c0,1.4-1.2,2.3-2.5,2.3
			C72.6,261.3,71.5,260.3,71.5,259 M104.9,255.7c0.2-2.7-1.1-4.7-2.7-4.7l-5.5-1c-0.2-0.1-0.4-0.1-0.7-0.1c-1,0-2.3,0.6-3.2,1.7
			c-1.3,1-2.5,1.7-3.2,1.7c-0.4,0-0.6-0.2-0.7-0.6c2-3.5,3.8-5.3,6.7-5.3c1,0,2.1,0.2,3.4,0.6c1.2-0.6,1.6-1.4,1.2-2.6
			c-1.4-1.7-3-2.2-4.9-2.2c-1.6,0-3.5,0.4-5.4,0.8c-1.4,0-2.7-0.4-3.7-0.9c-1.4,0.9-2.8,1.3-4.3,1.3c-1.1,0-2.2-0.2-3.5-0.5
			c-0.3-0.1-0.6-0.1-0.9-0.1c-2.3,0-2.6,2.5-1.4,3.4c3.7,2.5,5.4,5,6,8.2c0.2,2.5-0.4,5.8-0.6,8.6c0.6,1.5,1.6,2.2,2.8,2.2
			c0.9,0,2-0.4,3.1-1.1c0.2-0.1,0.3-0.1,0.5-0.1c0.6,0,1.2,0.6,0.7,1.7l-2.1,2.1c0.4,1.1,1.1,1.9,2.4,1.9c1.4,0,3.5-0.8,6.5-2.8
			l1-1.8c0.6-0.6,0.4-1,1-1c0.1-0.1,0.3-0.1,0.4-0.1c0.8,0,1.6,0.8,1.9,1.6c-0.4,1-1.2,1.3-2.3,1.6c-1.2,1.2-1.9,2.5-2.7,3.7
			c-1.7,2.3-3,7-9.5,7c-0.3,0-0.5,0-0.8,0c-7.2,0-8.6-5.8-10.7-7.8l-3.5-3.3c-0.3-0.8,0.3-1.7,0.9-1.7c0.3,0,0.5,0.1,0.8,0.5
			c2,1.7,4.1,3.1,6.4,3.7c0.2,0,0.4,0.1,0.5,0.1c0.8,0,1.6-0.4,2.4-1c0.2-0.6,0.2-1.4-0.4-1.9c-1-0.4-1.2-1.2-1.2-2.4
			c0.2-2.7,0.2-4.7,0.4-7.6c0-2.9-1.4-4.9-3.5-6.6c-0.8-0.3-1.5-0.4-2.1-0.4c-1.6,0-2.7,0.9-3.4,2.3c-0.4,0.4-0.8,0.6-1.2,0.6
			c-0.7,0-1.3-0.6-1.1-1.5c0.5-1.6,1.4-3.1,2.3-4.5c0-0.8-0.6-2-1.1-2.2c-3.5,0-4.9,2.3-5.3,5.9l1,12.4c0.2,4.3-0.8,7-1.2,10.3
			c0,3.7,1.2,6.4,3.7,7.8c2.7,1.8,7.6,2.9,11.5,4.1c1.2,0.4,2.3,0.5,3.4,0.5c0.7,0,1.5-0.1,2.2-0.2c5.6-1.3,11.3-2.5,16.9-3.5
			c1.2-1,1.9-2.1,1.8-4.3C103.4,267.6,105.1,261.9,104.9,255.7 M89.7,272.2h-9.9c-1.8,0-2.4,0.8-1.2,2.3c1.3,1.6,3,2.8,5.4,2.8
			c0.2,0,0.4,0,0.6,0c2.9,0,5.1-1.1,6.1-3.9C90.9,272.6,90.5,272.2,89.7,272.2 M116.2,349.3l-7.4,0.4L112,374c1.6,0.7,3,1,4.4,1
			c1,0,2-0.2,3-0.6L116.2,349.3z M136.1,338.8c0.6-4.3-1.5-4.3-4.7-5.5c-1-0.8-2-1.4-3-1.4c-0.2,0-0.3,0-0.5,0
			c-1.2-1-2.3-1.4-3.3-1.4c-0.2,0-0.4,0-0.6,0c-0.9-0.7-1.9-1-2.8-1c-0.9,0-1.8,0.3-2.5,0.8c-2.2,1.6-4.1,4.7-3.7,8.6
			c0.2,1.1,1,1.6,1.7,1.6c1.1,0,2.3-1,2.5-3.2c0.3-0.8,0.8-1.2,1.4-1.2c0.9,0,1.9,1,2.3,3.3c0.2,2.5-0.7,5.3,1.9,5.3
			c0.2,0,0.4,0,0.6,0l3.5-2.5c0.2,1.1,0.8,1.6,1.6,1.6c0.8,0,1.8-0.5,2.7-1.4C134.9,341.5,135.7,340.2,136.1,338.8 M153,370.1
			l-2.9-23.4l-30.8,2.3l3.5,25.3L153,370.1z"/>
		<path d="M71.5,259L71.5,259c0,1.4,1.1,2.3,2.4,2.3c1.3,0,2.5-1,2.5-2.3c0-1.4-1.2-2.3-2.5-2.3C72.6,256.7,71.5,257.6,71.5,259
			 M96.8,258.4L96.8,258.4c0-1.4-1-2.4-2.3-2.4c-1.4,0-2.4,1-2.4,2.4c0,1.3,1,2.3,2.4,2.3C95.8,260.7,96.8,259.8,96.8,258.4
			 M150.1,346.8l2.9,23.4l-30.2,4.3l-3.5-25.3L150.1,346.8z M136.1,338.8c-0.4,1.4-1.2,2.7-2.7,3.7c-0.9,0.9-1.9,1.4-2.7,1.4
			c-0.8,0-1.4-0.5-1.6-1.6l-3.5,2.5c-0.2,0-0.4,0-0.6,0c-2.6,0-1.7-2.7-1.9-5.3c-0.5-2.3-1.5-3.3-2.3-3.3c-0.6,0-1.1,0.4-1.4,1.2
			c-0.2,2.1-1.4,3.2-2.5,3.2c-0.8,0-1.5-0.5-1.7-1.6c-0.4-3.9,1.5-7,3.7-8.6c0.7-0.5,1.5-0.8,2.5-0.8c0.9,0,1.9,0.3,2.8,1
			c0.2,0,0.4,0,0.6,0c1,0,2.2,0.4,3.3,1.4c0.2,0,0.3,0,0.5,0c1,0,2,0.6,3,1.4C134.6,334.5,136.7,334.5,136.1,338.8 M108.9,349.7
			l7.4-0.4l3.1,25.1c-0.9,0.4-1.9,0.6-3,0.6c-1.4,0-2.9-0.3-4.4-1L108.9,349.7z M107.3,362.4l1.9,10.9c-3.3-1.2-6.6-4.1-9.3-5.3
			v-5.4c1.4-0.6,2.9-1.2,4.3-2.1C105.4,360.4,106.3,361,107.3,362.4 M89.7,272.2c0.8,0,1.2,0.4,1,1.2c-1,2.8-3.1,3.9-6.1,3.9
			c-0.2,0-0.4,0-0.6,0c-2.4,0-4.1-1.1-5.4-2.8c-1.2-1.6-0.6-2.3,1.2-2.3H89.7z M104.9,255.7c0.2,6.2-1.5,11.9-1,22.8
			c0.2,2.1-0.6,3.3-1.8,4.3c-5.6,1-11.3,2.1-16.9,3.5c-0.8,0.1-1.5,0.2-2.2,0.2c-1.1,0-2.2-0.1-3.4-0.5c-3.9-1.1-8.8-2.3-11.5-4.1
			c-2.5-1.4-3.7-4.1-3.7-7.8c0.4-3.3,1.4-6,1.2-10.3l-1-12.4c0.4-3.5,1.8-5.9,5.3-5.9c0.5,0.2,1.1,1.4,1.1,2.2
			c-1,1.3-1.8,2.9-2.3,4.5c-0.1,0.9,0.4,1.5,1.1,1.5c0.4,0,0.8-0.2,1.2-0.6c0.7-1.4,1.7-2.3,3.4-2.3c0.6,0,1.3,0.1,2.1,0.4
			c2.1,1.8,3.5,3.7,3.5,6.6c-0.2,2.9-0.2,4.9-0.4,7.6c0,1.2,0.2,1.9,1.2,2.4c0.6,0.5,0.6,1.3,0.4,1.9c-0.8,0.6-1.6,1-2.4,1
			c-0.2,0-0.4,0-0.5-0.1c-2.4-0.6-4.5-1.9-6.4-3.7c-0.2-0.3-0.5-0.5-0.8-0.5c-0.6,0-1.2,0.8-0.9,1.7l3.5,3.3
			c2.1,1.9,3.5,7.8,10.7,7.8c0.3,0,0.6,0,0.8,0c6.5,0,7.8-4.7,9.5-7c0.8-1.2,1.6-2.5,2.7-3.7c1.2-0.2,1.9-0.6,2.3-1.6
			c-0.3-0.8-1.1-1.6-1.9-1.6c-0.1,0-0.3,0-0.4,0.1c-0.6,0-0.4,0.4-1,1l-1,1.8c-3,2-5.1,2.8-6.5,2.8c-1.3,0-2.1-0.7-2.4-1.9l2.1-2.1
			c0.5-1.1,0-1.7-0.7-1.7c-0.2,0-0.3,0-0.5,0.1c-1.1,0.7-2.1,1.1-3.1,1.1c-1.2,0-2.2-0.7-2.8-2.2c0.2-2.8,0.8-6.1,0.6-8.6
			c-0.6-3.1-2.3-5.7-6-8.2c-1.2-0.9-0.9-3.4,1.4-3.4c0.3,0,0.6,0,0.9,0.1c1.3,0.3,2.4,0.5,3.5,0.5c1.5,0,2.9-0.4,4.3-1.3
			c1,0.6,2.3,0.9,3.7,0.9c1.9-0.4,3.7-0.8,5.4-0.8c1.9,0,3.6,0.5,4.9,2.2c0.4,1.2,0,2-1.2,2.6c-1.3-0.4-2.4-0.6-3.4-0.6
			c-2.9,0-4.6,1.8-6.7,5.3c0.1,0.4,0.3,0.6,0.7,0.6c0.7,0,1.9-0.7,3.2-1.7c0.9-1.1,2.2-1.7,3.2-1.7c0.3,0,0.5,0,0.7,0.1l5.5,1
			C103.8,251,105.1,253,104.9,255.7 M68.3,284.7c0.3,0,0.6,0.1,0.9,0.2c3.5,1.2,5.3,2.6,9.4,3.5c1.4,0.2,1.8,0.7,1.4,2.3
			c-1.2,2.4-2.4,4.1-4.5,5.8c-0.9,0.4-1.1,0.7-1.4,0.7c-0.2,0-0.5-0.2-1.1-0.7c-3.9-3.5-5.4-6.4-6-9.4
			C66.5,285.4,67.3,284.7,68.3,284.7 M88.8,288c0.1,0,0.2,0,0.3,0c4.1-0.8,8-1.8,11.5-3c0.4-0.2,0.8-0.2,1.1-0.2
			c0.9,0,1.5,0.5,1.4,1.6c-0.8,2.9-3.1,7-5.4,9.9c-0.7,0.8-1.4,1.2-2.2,1.2c-0.8,0-1.7-0.4-2.7-1.2c-2.1-1.7-4.1-3.9-5.3-6.3
			C87.4,288.7,87.9,288,88.8,288 M61.7,361.8l-3.5,0.2l-0.4-5.1l3.3-0.2L61.7,361.8z M46.7,235.8c-0.8,5-4.2,7.5-7.5,7.5
			c-1.2,0-2.5-0.3-3.6-1c-0.8,1.3-2.3,1.8-3.6,1.8c-0.6,0-1.1-0.1-1.6-0.3c-3.1-1.6-3.5-3.9-3.5-6.8c-0.2-1.6,0.4-2.4,1.4-2.7
			c1.2-0.4,3.7-0.4,4.5-1c0.5-0.4,0.8-0.6,1.1-0.6c0.6,0,1,0.7,1.4,1.7c0.2,1.2,0.8,2.3,2.1,3.5c0.8,1,2.1,1.9,2.7,2.9
			c0.8-0.2,1.3-1.1,0.8-2.1c-2.4-1.7-2.7-2.3-2.5-4.7c0.2-1.6,1.6-2.3,3.7-2.9c-1.5-1.8-2.7-3.5-2.5-5.2c0.1-0.9,0.8-1.3,1.5-1.3
			c0.5,0,0.9,0.2,1.4,0.5c1.4,0.8,2.4,2.4,3.9,6.4C46.9,232.9,47.1,234.3,46.7,235.8 M43.6,222.6l-3.7-1c-0.8-3.1-1.2-5.6-1.4-7.8
			c0-1.2,0.4-1.9,1.3-1.9c0.3,0,0.8,0.1,1.3,0.3C42.3,214.8,43.3,218.3,43.6,222.6 M26.7,232.9c-0.4,0.4-0.8,0.6-1.2,0.6
			c-1.5,0-2.9-2.6-2.7-5.8c0.1-1.1,0.4-1.8,1.1-1.8c0.2,0,0.5,0.1,0.8,0.2C24.9,227.8,25.5,231,26.7,232.9 M152.6,344.6l-15,1.5
			c1-2.7,1.2-5,0.6-7.2l1-1.4c1.4-10.7,2.6-22.8,3.1-33.8c1.2-7.2-2.9-10.1-6.6-11.3L107,279.2c-0.6-3.1,0.8-5.8,3.5-8.2
			c1.2-0.2,1.9-1.8,2.3-4.3c-0.2-5.6-2.3-5.6-2.6-6.8c-0.2-1.9,0.4-3.7,2.1-5.3c2.8-2.7,3.6-6,2.6-9.2c-2.6-4.1-5.1-5.1-7.1-5.1
			c-0.8,0-1.6,0.2-2.2,0.3c-0.6,0.2-1.1,0.3-1.5,0.3c-0.1,0-0.2,0-0.2,0c-1.6-0.6-1.9-1.6-2.3-2.3c-2.7-5.8-13.1-8.6-20.4-8.6
			c-6.6,0-12.3,1.6-16.9,7c-5.3,3.9-8.2,10.7-4.3,19.3c0.4,1.2,0.6,3.9,0,4.5c-1.3,1.1-2.7,1.9-4.1,2.3c-3.5-5.5-5.8-13.6-8.4-18.7
			c-0.2-1.5,0.4-4.1,0.8-6c0.6-2.2,0.2-4.5-0.4-5.9c-1-5-2.4-9.9-3.9-15c-1.2-4.3-2.5-6.1-4.2-6.1c-0.2,0-0.5,0-0.7,0.1
			c-2.9,0-3.7,3.4-3.5,8.4c0.2,0,0.4,0,0.6,0c0.2,0,0.4,0,0.6,0l0,0c0.4,2.1-0.8,6.2,1.1,9.9c-0.2,0.9-0.6,1.4-1.1,1.4l0,0
			c-0.3,0-0.6-0.1-1-0.4c-2.4-3.1-3-6.1-2.4-8.6c0.3-1,0.7-1.6,1.2-2c-1.5,0.5-3,1.4-4.1,2.7c0,0,0,0,0,0c0,2.4,0.8,5.1,2.1,7.8
			c-0.8,0.7-1.6,1.1-2.3,1.1h0c-1.8,0-3.1-2.5-3-6.6c0.1-0.8,0.3-1.5,0.6-1.9c-1.2,0.1-2.2,0.8-3.2,2.1c-0.4-0.1-0.7-0.1-1-0.1
			c-1.8,0-3.2,1.3-4.2,3.2c-0.4,4.3,0.8,7,3.7,8.8c-1.2,2.7,0.4,6.2,3.5,10.5c0,0.4-0.4,0.8-0.8,1.1l-1.8,1.6l7,26.7
			c1.6,7.8,3.1,17.9,4.7,29c0.4,3.3,0.6,6.4,0,9.3l-5.8,35.5c2.1,2.1,11.5,4.7,23,7.2l0.8,6.2l-23,5.7c-1.6,0.8-1.4,4.3,0.8,4.5
			l42.6-4.3l1.6-6.4c0.5-0.6,1.2-1,2-1c0.7,0,1.4,0.2,2.1,0.8l4.9,14.6l32.7,8.6c0.7,0.2,1.4,0.3,2,0.3c0.9,0,1.6-0.2,2.1-0.7
			c1-0.9,1-2.9,0-5l35-5.2L152.6,344.6z"/>
		<path class="st3" d="M188.4,438.4c1.3-1.2,1.9-3.3,1.9-6.3v-4H181v2.4h6.6v1.5c0,1.5-0.1,2.6-0.3,3.2c-0.2,0.6-0.5,1.1-0.9,1.5
			c-0.5,0.4-1,0.6-1.6,0.8c-0.6,0.2-1.7,0.2-3.2,0.2h-2.1c-1.7,0-2.8-0.1-3.5-0.3c-0.7-0.2-1.3-0.5-1.8-0.9c-0.5-0.4-0.8-0.9-1-1.6
			c-0.2-0.7-0.3-1.8-0.3-3.5v-6.7c0-1.7,0.1-2.9,0.3-3.5c0.2-0.7,0.5-1.2,1-1.6c0.5-0.4,1.1-0.7,1.8-0.9c0.7-0.2,1.9-0.3,3.5-0.3
			h2.1c2.3,0,3.9,0.3,4.7,1c0.8,0.6,1.2,1.8,1.2,3.4v0.3h2.7v-1c0-2.1-0.7-3.6-2.1-4.6c-1.4-1-3.5-1.5-6.4-1.5h-3
			c-3.2,0-5.4,0.6-6.6,1.8c-1.3,1.2-1.9,3.3-1.9,6.3v8c0,3,0.6,5.1,1.9,6.3c1.2,1.2,3.5,1.8,6.6,1.8h3
			C184.9,440.2,187.1,439.6,188.4,438.4 M208.7,439.9h16.6v-2.5h-14v-8.5h13.6v-2.4h-13.6v-7.7h14v-2.5h-16.6V439.9z M250.2,418.7
			h7.6v-2.5H240v2.5h7.5v21.2h2.6V418.7z M276.9,425.3c-0.4-0.5-0.6-1.5-0.6-2.8c0-1.7,0.3-2.8,0.9-3.3c0.6-0.6,2.2-0.8,4.6-0.8
			c2.4,0,4,0.1,4.8,0.2c0.8,0.1,1.4,0.4,1.8,0.7c0.2,0.2,0.4,0.6,0.5,1c0.1,0.5,0.1,1.1,0.1,2v0.6h2.6c0-0.1,0-0.3,0-0.4
			c0-0.2,0-0.4,0-0.7c0-1-0.1-1.9-0.3-2.6c-0.2-0.7-0.6-1.2-1-1.6c-0.7-0.6-1.5-1-2.5-1.2c-1-0.2-2.7-0.4-5.1-0.4h-0.8
			c-2.2,0-3.7,0.1-4.5,0.3c-0.9,0.2-1.5,0.5-2,0.9c-0.6,0.6-1.1,1.2-1.3,2.1c-0.3,0.8-0.4,1.9-0.4,3.3c0,2.2,0.4,3.7,1.3,4.7
			c0.8,0.9,2.3,1.5,4.5,1.6l7.3,0.6c1.1,0.1,1.8,0.4,2.1,0.8c0.4,0.4,0.5,1.6,0.5,3.3c0,0.9,0,1.6-0.1,2.1c-0.1,0.5-0.2,0.9-0.4,1.1
			c-0.4,0.4-0.9,0.7-1.7,0.9c-0.7,0.2-1.8,0.3-3.1,0.3c-2.5,0-4.1,0-4.9-0.1c-0.8-0.1-1.4-0.2-1.8-0.5c-0.5-0.3-0.8-0.7-1.1-1.4
			c-0.2-0.7-0.3-1.7-0.3-3.1v-0.4h-2.6v1.2c0,1.3,0.1,2.4,0.4,3.3c0.3,0.9,0.7,1.6,1.3,2.1c0.6,0.6,1.4,0.9,2.3,1.2
			c0.9,0.2,2.5,0.3,4.6,0.3h1.2c2.6,0,4.3-0.1,5.3-0.4c1-0.3,1.7-0.7,2.3-1.4c0.5-0.5,0.8-1.2,1-1.9c0.2-0.8,0.3-1.9,0.3-3.5
			c0-2.1-0.4-3.6-1.2-4.5c-0.8-0.9-2.2-1.4-4.1-1.6l-7.4-0.6C278.1,426.2,277.3,425.8,276.9,425.3 M343.6,429.4l9.8-13.2h-3.1l-8,11
			l-8-11h-3.1l9.8,13.2v10.5h2.6V429.4z M385.2,431.4c0,1.7-0.1,2.9-0.3,3.5c-0.2,0.7-0.5,1.2-1,1.6c-0.5,0.4-1.1,0.7-1.8,0.9
			c-0.7,0.2-1.9,0.3-3.5,0.3h-1.5c-1.7,0-2.8-0.1-3.5-0.3c-0.7-0.2-1.3-0.5-1.8-0.9c-0.5-0.4-0.8-0.9-1-1.6
			c-0.2-0.7-0.3-1.8-0.3-3.5v-6.7c0-1.7,0.1-2.8,0.3-3.5c0.2-0.7,0.5-1.2,1-1.6c0.5-0.4,1.1-0.7,1.8-0.9c0.7-0.2,1.9-0.3,3.5-0.3
			h1.5c1.7,0,2.9,0.1,3.5,0.3c0.7,0.2,1.3,0.5,1.8,0.9c0.5,0.4,0.8,0.9,1,1.6c0.2,0.7,0.3,1.9,0.3,3.5V431.4z M386,438.4
			c1.3-1.2,1.9-3.3,1.9-6.3v-8c0-3.1-0.6-5.2-1.9-6.3c-1.2-1.2-3.5-1.8-6.7-1.8h-3c-3.2,0-5.4,0.6-6.7,1.8c-1.3,1.2-1.9,3.3-1.9,6.3
			v8c0,3,0.6,5.1,1.9,6.3c1.3,1.2,3.5,1.8,6.7,1.8h3C382.5,440.2,384.8,439.6,386,438.4 M423.6,438.4c1.2-1.2,1.8-3.3,1.8-6.3v-15.9
			h-2.6v15.5c0,1.5-0.1,2.6-0.2,3.2c-0.2,0.6-0.4,1.1-0.8,1.4c-0.4,0.4-0.9,0.6-1.5,0.8c-0.6,0.2-1.6,0.2-3.1,0.2h-2.5
			c-1.4,0-2.5-0.1-3-0.2c-0.6-0.2-1.1-0.4-1.5-0.8c-0.4-0.4-0.7-0.9-0.9-1.5c-0.2-0.6-0.2-1.7-0.2-3.2v-15.5h-2.6v15.9
			c0,3,0.6,5.1,1.8,6.3c1.2,1.2,3.3,1.8,6.3,1.8h2.9C420.3,440.2,422.4,439.6,423.6,438.4 M486.6,438.4c1.3-1.2,1.9-3.3,1.9-6.3v-4
			h-9.3v2.4h6.6v1.5c0,1.5-0.1,2.6-0.3,3.2c-0.2,0.6-0.5,1.1-0.9,1.5c-0.5,0.4-1,0.6-1.6,0.8c-0.6,0.2-1.7,0.2-3.2,0.2h-2.1
			c-1.7,0-2.8-0.1-3.5-0.3c-0.7-0.2-1.3-0.5-1.8-0.9c-0.5-0.4-0.8-0.9-1-1.6s-0.3-1.8-0.3-3.5v-6.7c0-1.7,0.1-2.9,0.3-3.5
			c0.2-0.7,0.5-1.2,1-1.6c0.5-0.4,1.1-0.7,1.8-0.9c0.7-0.2,1.9-0.3,3.5-0.3h2.1c2.3,0,3.9,0.3,4.7,1c0.8,0.6,1.2,1.8,1.2,3.4v0.3
			h2.7v-1c0-2.1-0.7-3.6-2.1-4.6c-1.4-1-3.5-1.5-6.4-1.5h-3c-3.2,0-5.4,0.6-6.6,1.8c-1.3,1.2-1.9,3.3-1.9,6.3v8c0,3,0.6,5.1,1.9,6.3
			c1.2,1.2,3.5,1.8,6.6,1.8h3C483.1,440.2,485.3,439.6,486.6,438.4 M523.5,431.4c0,1.7-0.1,2.9-0.3,3.5c-0.2,0.7-0.5,1.2-1,1.6
			c-0.5,0.4-1.1,0.7-1.8,0.9c-0.7,0.2-1.9,0.3-3.5,0.3h-1.5c-1.7,0-2.8-0.1-3.5-0.3c-0.7-0.2-1.3-0.5-1.8-0.9
			c-0.5-0.4-0.8-0.9-1-1.6c-0.2-0.7-0.3-1.8-0.3-3.5v-6.7c0-1.7,0.1-2.8,0.3-3.5c0.2-0.7,0.5-1.2,1-1.6c0.5-0.4,1.1-0.7,1.8-0.9
			c0.7-0.2,1.9-0.3,3.5-0.3h1.5c1.7,0,2.9,0.1,3.5,0.3c0.7,0.2,1.3,0.5,1.8,0.9c0.5,0.4,0.8,0.9,1,1.6c0.2,0.7,0.3,1.9,0.3,3.5
			V431.4z M524.3,438.4c1.3-1.2,1.9-3.3,1.9-6.3v-8c0-3.1-0.6-5.2-1.9-6.3c-1.2-1.2-3.5-1.8-6.7-1.8h-3c-3.2,0-5.4,0.6-6.7,1.8
			c-1.3,1.2-1.9,3.3-1.9,6.3v8c0,3,0.6,5.1,1.9,6.3c1.2,1.2,3.5,1.8,6.7,1.8h3C520.8,440.2,523.1,439.6,524.3,438.4 M544.8,439.9
			h2.6v-23.7h-2.6V439.9z M582.3,439.9h4v-23.7h-2.6v21.1l-12.8-21.1h-4v23.7h2.6v-21.2L582.3,439.9z M622.3,430.5v1.5
			c0,1.5-0.1,2.6-0.3,3.2c-0.2,0.6-0.5,1.1-0.9,1.5c-0.5,0.4-1,0.6-1.6,0.8c-0.6,0.2-1.7,0.2-3.2,0.2h-2.1c-1.7,0-2.8-0.1-3.5-0.3
			c-0.7-0.2-1.3-0.5-1.8-0.9c-0.5-0.4-0.8-0.9-1-1.6s-0.3-1.8-0.3-3.5v-6.7c0-1.7,0.1-2.9,0.3-3.5c0.2-0.7,0.5-1.2,1-1.6
			c0.5-0.4,1.1-0.7,1.8-0.9c0.7-0.2,1.9-0.3,3.5-0.3h2.1c2.3,0,3.9,0.3,4.7,1c0.8,0.6,1.2,1.8,1.2,3.4v0.3h2.7v-1
			c0-2.1-0.7-3.6-2.1-4.6c-1.4-1-3.5-1.5-6.5-1.5h-3c-3.2,0-5.4,0.6-6.6,1.8c-1.3,1.2-1.9,3.3-1.9,6.3v8c0,3,0.6,5.1,1.9,6.3
			c1.3,1.2,3.5,1.8,6.6,1.8h3c3.2,0,5.4-0.6,6.6-1.8s1.9-3.3,1.9-6.3v-4h-9.3v2.4H622.3z"/>
	</g>
</g>
</svg>
